<svg xmlns="http://www.w3.org/2000/svg" xmlns:xlink="http://www.w3.org/1999/xlink" version="1.1" id="Capa_1" x="0px" y="0px" viewBox="0 0 188.149 188.149" style="enable-background:new 0 0 188.149 188.149;" xml:space="preserve" width="100%" height="100%" ><rect id="svgEditorBackground" x="0" y="0" width="188.1490020751953" height="188.1490020751953" style="fill: none; stroke: none;"/>
<g>
	<g>
		<defs>
			<circle id="SVGID_1_" cx="94.074" cy="94.074" r="94.074"/>
		</defs>
		<use xlink:href="#SVGID_1_" style="overflow: visible;fill:maroon;"/>
		<clipPath id="SVGID_2_">
			<use xlink:href="#SVGID_1_" style="overflow:visible;"/>
		</clipPath>
		<path style="clip-path:url(#SVGID_2_);fill:#ECC19C;" d="M135.973,52.784v31.266c0,0.4519999999999982,-0.009999999999990905,0.9039999999999964,-0.020999999999986585,1.3559999999999945c-0.009999999999990905,0.37000000000000455,-0.020000000000010232,0.730000000000004,-0.04099999999999682,1.100999999999999c-0.009999999999990905,0.3289999999999935,-0.03100000000000591,0.6580000000000013,-0.06200000000001182,0.9869999999999948c-0.009999999999990905,0.2360000000000042,-0.03100000000000591,0.472999999999999,-0.05099999999998772,0.7090000000000032c-0.01099999999999568,0.14499999999999602,-0.020999999999986585,0.277000000000001,-0.04200000000000159,0.42199999999999704c-0.020000000000010232,0.257000000000005,-0.04099999999999682,0.5240000000000009,-0.08199999999999363,0.7810000000000059c-0.04099999999999682,0.492999999999995,-0.10300000000000864,0.9770000000000039,-0.17500000000001137,1.4699999999999989c-0.009999999999990905,0.12399999999999523,-0.03100000000000591,0.2469999999999999,-0.05099999999998772,0.37000000000000455c-0.03100000000000591,0.2469999999999999,-0.07200000000000273,0.4939999999999998,-0.11299999999999955,0.7399999999999949v0.03100000000000591c-0.06100000000000705,0.35899999999999466,-0.12299999999999045,0.7090000000000032,-0.18500000000000227,1.0690000000000026c-0.09299999999998931,0.492999999999995,-0.18500000000000227,0.9869999999999948,-0.2880000000000109,1.4699999999999989c-0.009999999999990905,0.021000000000000796,-0.009999999999990905,0.04200000000000159,-0.020000000000010232,0.06300000000000239c-0.009999999999990905,0.07099999999999795,-0.020999999999986585,0.14400000000000546,-0.04099999999999682,0.21599999999999397c-0.009999999999990905,0.021000000000000796,-0.009999999999990905,0.04099999999999682,-0.020999999999986585,0.06199999999999761c-0.05099999999998772,0.2680000000000007,-0.11299999999999955,0.5240000000000009,-0.17500000000001137,0.7810000000000059c-0.020000000000010232,0.11299999999999955,-0.04099999999999682,0.22700000000000387,-0.08199999999999363,0.3400000000000034c-0.03100000000000591,0.18500000000000227,-0.08299999999999841,0.3689999999999998,-0.12299999999999045,0.5550000000000068c-0.03100000000000591,0.10299999999999443,-0.05099999999998772,0.21599999999999397,-0.09299999999998931,0.31799999999999784c-0.020999999999986585,0.09300000000000352,-0.05099999999998772,0.18600000000000705,-0.07200000000000273,0.2680000000000007c-0.21600000000000819,0.8430000000000035,-0.46299999999999386,1.6659999999999968,-0.7199999999999989,2.4879999999999995c-0.12399999999999523,0.39100000000000534,-0.2470000000000141,0.7710000000000008,-0.37999999999999545,1.1620000000000061c-0.009999999999990905,0.04099999999999682,-0.03100000000000591,0.08199999999999363,-0.04099999999999682,0.12300000000000466c-0.12299999999999045,0.3499999999999943,-0.2470000000000141,0.6989999999999981,-0.37000000000000455,1.0490000000000066c-0.04099999999999682,0.10299999999999443,-0.08199999999999363,0.2049999999999983,-0.12299999999999045,0.31799999999999784c-0.12399999999999523,0.3289999999999935,-0.2470000000000141,0.6580000000000013,-0.37999999999999545,0.9869999999999948c-0.15399999999999636,0.4000000000000057,-0.3189999999999884,0.7909999999999968,-0.4830000000000041,1.183000000000007c-0.14400000000000546,0.3499999999999943,-0.2980000000000018,0.6979999999999933,-0.4519999999999982,1.0480000000000018c-0.020000000000010232,0.06300000000000239,-0.05099999999998772,0.11299999999999955,-0.07200000000000273,0.17499999999999716c-0.17500000000001137,0.37000000000000455,-0.33899999999999864,0.7399999999999949,-0.51400000000001,1.100999999999999c-0.17500000000001137,0.37999999999999545,-0.36000000000001364,0.7609999999999957,-0.5550000000000068,1.141999999999996c-0.37000000000000455,0.75,-0.7709999999999866,1.5010000000000048,-1.171999999999997,2.230000000000004l-0.5550000000000068,0.9869999999999948c-1.5840000000000032,2.7249999999999943,-3.340999999999994,5.284000000000006,-5.254000000000005,7.649000000000001c-0.257000000000005,0.33899999999999864,-0.5240000000000009,0.6680000000000064,-0.8020000000000067,0.9860000000000042c-0.37999999999999545,0.46299999999999386,-0.7710000000000008,0.9150000000000063,-1.1620000000000061,1.3569999999999993c-0.3499999999999943,0.39100000000000534,-0.6989999999999981,0.7810000000000059,-1.0589999999999975,1.1620000000000061c-0.9869999999999948,1.0589999999999975,-1.9950000000000045,2.0660000000000025,-3.022999999999996,3.0130000000000052c-0.20600000000000307,0.2049999999999983,-0.4210000000000065,0.39100000000000534,-0.6370000000000005,0.5859999999999985c-0.3499999999999943,0.31799999999999784,-0.6989999999999981,0.6269999999999953,-1.0589999999999975,0.9249999999999972c-0.277000000000001,0.2469999999999999,-0.5649999999999977,0.4830000000000041,-0.8539999999999992,0.7199999999999989c-0.7399999999999949,0.6060000000000088,-1.480000000000004,1.191999999999993,-2.2309999999999945,1.737000000000009c-0.30800000000000693,0.23699999999999477,-0.6269999999999953,0.46299999999999386,-0.945999999999998,0.679000000000002c-0.5139999999999958,0.37000000000000455,-1.0390000000000015,0.7199999999999989,-1.5630000000000024,1.0600000000000023c-0.2879999999999967,0.19499999999999318,-0.5859999999999985,0.37999999999999545,-0.8840000000000003,0.5550000000000068c-1.0490000000000066,0.6469999999999914,-2.108000000000004,1.2439999999999998,-3.1569999999999965,1.7580000000000098c-0.257000000000005,0.13399999999998613,-0.5139999999999958,0.2580000000000098,-0.7710000000000008,0.3810000000000002c-0.257000000000005,0.12299999999999045,-0.5240000000000009,0.2470000000000141,-0.8020000000000067,0.37000000000000455c-0.33899999999999864,0.15399999999999636,-0.679000000000002,0.2980000000000018,-1.0180000000000007,0.43199999999998795c-0.13400000000000034,0.06100000000000705,-0.2669999999999959,0.11299999999999955,-0.40099999999999625,0.15399999999999636c-0.40099999999999625,0.16499999999999204,-0.8119999999999976,0.31800000000001205,-1.2129999999999939,0.4519999999999982c-0.5030000000000001,0.18600000000000705,-1.0180000000000007,0.3400000000000034,-1.5210000000000008,0.4830000000000041c-0.3499999999999943,0.10300000000000864,-0.7090000000000032,0.19499999999999318,-1.0589999999999975,0.2769999999999868c-0.021000000000000796,0.01099999999999568,-0.04099999999999682,0.020999999999986585,-0.07200000000000273,0.020999999999986585c-0.3499999999999943,0.08299999999999841,-0.6989999999999981,0.16499999999999204,-1.0490000000000066,0.22700000000000387c-0.09199999999999875,0.020999999999986585,-0.18500000000000227,0.04099999999999682,-0.277000000000001,0.0519999999999925c-0.2879999999999967,0.05099999999998772,-0.5759999999999934,0.10300000000000864,-0.8640000000000043,0.13399999999998613c-0.41100000000000136,0.06200000000001182,-0.8229999999999933,0.11299999999999955,-1.2339999999999947,0.13300000000000978c-0.14400000000000546,0.020999999999986585,-0.277000000000001,0.03100000000000591,-0.4210000000000065,0.03100000000000591c-0.3289999999999935,0.020000000000010232,-0.6580000000000013,0.03100000000000591,-0.9770000000000039,0.03100000000000591h-0.03100000000000591c-0.31799999999999784,0,-0.6370000000000005,-0.01099999999999568,-0.9560000000000031,-0.03100000000000591c-0.12300000000000466,0,-0.2469999999999999,-0.009999999999990905,-0.37000000000000455,-0.03100000000000591c-0.2879999999999967,-0.009999999999990905,-0.5859999999999985,-0.04099999999999682,-0.894999999999996,-0.08199999999999363c-0.06100000000000705,0,-0.13299999999999557,-0.009999999999990905,-0.19499999999999318,-0.020999999999986585c-0.37999999999999545,-0.05099999999998772,-0.7609999999999957,-0.11299999999999955,-1.1509999999999962,-0.18500000000000227c-0.3289999999999935,-0.0519999999999925,-0.6580000000000013,-0.12399999999999523,-0.9980000000000047,-0.20599999999998886c-1.7579999999999956,-0.40100000000001046,-3.566999999999993,-1.0080000000000098,-5.397000000000006,-1.8189999999999884c-1.5630000000000024,-0.688999999999993,-3.146000000000001,-1.5219999999999914,-4.718999999999994,-2.4879999999999995c-0.7909999999999968,-0.4830000000000041,-1.5829999999999984,-0.9970000000000141,-2.364999999999995,-1.5420000000000016c-0.39100000000000534,-0.2779999999999916,-0.7810000000000059,-0.5560000000000116,-1.171999999999997,-0.8439999999999941c-1.2240000000000038,-0.8950000000000102,-2.4369999999999976,-1.8709999999999951,-3.629000000000005,-2.9200000000000017c-0.3289999999999935,-0.2980000000000018,-0.6580000000000013,-0.5960000000000036,-0.9869999999999948,-0.9039999999999964c-0.3289999999999935,-0.2980000000000018,-0.6580000000000013,-0.6069999999999993,-0.9770000000000039,-0.9050000000000011c-0.8020000000000067,-0.7710000000000008,-1.5829999999999984,-1.5720000000000027,-2.343999999999994,-2.405000000000001c-0.2980000000000018,-0.3190000000000026,-0.5960000000000036,-0.6470000000000056,-0.894999999999996,-0.9869999999999948c-0.8220000000000027,-0.9249999999999972,-1.6239999999999952,-1.8810000000000002,-2.385000000000005,-2.879000000000005c-0.2980000000000018,-0.35899999999999466,-0.5759999999999934,-0.7289999999999992,-0.8530000000000015,-1.0999999999999943c-1.0390000000000015,-1.3780000000000001,-2.0249999999999986,-2.8170000000000073,-2.9510000000000005,-4.3089999999999975c-0.2469999999999999,-0.4000000000000057,-0.4939999999999998,-0.811000000000007,-0.7299999999999969,-1.2129999999999939c-0.2879999999999967,-0.4830000000000041,-0.5649999999999977,-0.9770000000000039,-0.8430000000000035,-1.4699999999999989c-1.0279999999999987,-1.850999999999999,-1.9739999999999966,-3.772999999999996,-2.7959999999999994,-5.757999999999996c-0.12400000000000233,-0.2879999999999967,-0.2469999999999999,-0.5759999999999934,-0.3500000000000014,-0.8629999999999995c-0.16400000000000148,-0.37000000000000455,-0.30799999999999983,-0.7510000000000048,-0.44200000000000017,-1.1209999999999951c-0.20600000000000307,-0.5450000000000017,-0.40100000000000335,-1.0900000000000034,-0.5859999999999985,-1.6350000000000051c-0.18500000000000227,-0.5450000000000017,-0.35999999999999943,-1.100999999999999,-0.5349999999999966,-1.6550000000000011c-0.16400000000000148,-0.5349999999999966,-0.31799999999999784,-1.0690000000000026,-0.4620000000000033,-1.6140000000000043c-0.16499999999999915,-0.5759999999999934,-0.3190000000000026,-1.1620000000000061,-0.45300000000000296,-1.7579999999999956c-0.00999999999999801,-0.06199999999999761,-0.030999999999998806,-0.12399999999999523,-0.04099999999999682,-0.18600000000000705c-0.19500000000000028,-0.8220000000000027,-0.36999999999999744,-1.6550000000000011,-0.5240000000000009,-2.4980000000000047c-0.20600000000000307,-1.1099999999999994,-0.36999999999999744,-2.2409999999999997,-0.4930000000000021,-3.3829999999999956c-0.0519999999999996,-0.35899999999999466,-0.08299999999999841,-0.7199999999999989,-0.11299999999999955,-1.0789999999999935c-0.04099999999999682,-0.3810000000000002,-0.07200000000000273,-0.7510000000000048,-0.09300000000000352,-1.1310000000000002c-0.05100000000000193,-0.6890000000000072,-0.08200000000000074,-1.3889999999999958,-0.10300000000000153,-2.087999999999994c-0.00999999999999801,-0.4519999999999982,-0.021000000000000796,-0.9039999999999964,-0.021000000000000796,-1.3559999999999945v-31.26700000000009c0,-23.103,18.72200000000001,-41.835,41.824,-41.855h0.04200000000000159c3.1869999999999976,0,6.292000000000002,0.359,9.272999999999996,1.0280000000000005c2.7249999999999943,0.6159999999999997,5.346999999999994,1.5009999999999994,7.834000000000003,2.6210000000000004c3.3930000000000007,1.5210000000000008,6.549000000000007,3.475999999999999,9.387,5.810000000000002c2.3859999999999957,1.9529999999999994,4.554999999999993,4.152999999999999,6.447000000000003,6.579999999999998c5.51100000000001,7.0219999999999985,8.831000000000003,15.844000000000001,8.903000000000006,25.445999999999998c0.009999999999990905,0.12299999999999756,0.009999999999990905,0.2459999999999951,0.009999999999990905,0.36999999999999744Z"/>
		<path style="clip-path:url(#SVGID_2_);fill:#ECC19C;" d="M148.65,200.743v0.01H39.575v-0.01c0-6.159,1.018-12.091,2.91-17.612    c0.339-0.997,0.709-1.984,1.111-2.961v-0.011c0.391-0.977,0.822-1.933,1.274-2.878c1.799-3.794,4.041-7.342,6.642-10.59    c0.658-0.813,1.326-1.605,2.015-2.365c0.339-0.391,0.699-0.77,1.059-1.151c0.359-0.37,0.72-0.74,1.089-1.11    c1.841-1.841,3.814-3.526,5.892-5.079c1.038-0.771,2.087-1.491,3.177-2.189c1.09-0.689,2.2-1.348,3.331-1.964    c0.021-0.02,0.041-0.02,0.041-0.02c0.442-0.237,0.874-0.494,1.306-0.761c1.285-0.771,2.519-1.625,3.691-2.57    c4.966-3.948,8.811-9.254,11.001-15.34c1.306-3.64,2.015-7.557,2.015-11.649l7.947,0.041l8.174,0.042    c0,4.04,0.689,7.916,1.964,11.515c2.159,6.107,5.994,11.433,10.96,15.401c0.74,0.607,1.491,1.162,2.282,1.687    c0.083,0.061,0.154,0.112,0.237,0.164c0.37,0.247,0.74,0.493,1.131,0.72c0.421,0.257,0.853,0.514,1.285,0.751    c0.072,0.02,0.134,0.051,0.185,0.092c0.905,0.504,1.799,1.028,2.673,1.573c0.422,0.257,0.843,0.524,1.254,0.822    c0.854,0.545,1.686,1.142,2.499,1.759c0,0.01,0.01,0.01,0.01,0.01h0.01c1.039,0.771,2.046,1.594,3.033,2.437    c0.987,0.844,1.933,1.727,2.848,2.643C142.532,172.017,148.65,185.651,148.65,200.743z"/>
		<path style="clip-path:url(#SVGID_2_);fill:#EB6D4A;" d="M148.646,200.739H39.572c0-6.159,1.018-12.092,2.91-17.612    c0.339-0.997,0.71-1.984,1.11-2.961v-0.011c0.391-0.977,0.823-1.933,1.275-2.879c1.799-3.793,4.04-7.341,6.642-10.59    c0.658-0.812,1.327-1.604,2.015-2.364c0.339-0.391,0.699-0.771,1.059-1.151c0.36-0.37,0.72-0.74,1.09-1.11    c1.84-1.841,3.814-3.526,5.891-5.079c1.039-0.771,2.087-1.491,3.177-2.19c0.565-0.359,1.131-0.709,1.706-1.048    c0.535-0.319,1.08-0.628,1.625-0.926c0.021-0.021,0.041-0.01,0.041-0.01v-0.011c0.442-0.247,0.874-0.493,1.306-0.751    c1.285-0.781,2.519-1.645,3.67-2.591c0.01,0.011,0.01,0.011,0.021,0.021c5.326,5.449,12.739,8.832,20.964,8.853h0.083    c8.225,0,15.668-3.393,21.015-8.842l0.01-0.011c0.73,0.607,1.491,1.173,2.272,1.697c0.082,0.061,0.154,0.112,0.236,0.164    c0.37,0.247,0.751,0.483,1.131,0.72c0.421,0.257,0.854,0.504,1.285,0.74c0.072,0.021,0.124,0.062,0.185,0.093    c0.483,0.268,0.977,0.545,1.45,0.832c0.412,0.247,0.823,0.494,1.224,0.751c0.421,0.257,0.843,0.524,1.254,0.822    c0.854,0.545,1.686,1.142,2.498,1.759h0.021c1.038,0.781,2.056,1.594,3.033,2.446c0.987,0.844,1.933,1.728,2.848,2.643    C142.529,172.012,148.646,185.645,148.646,200.739z"/>
		<path style="clip-path:url(#SVGID_2_);fill:#543E36;" d="M135.973,84.05c0,0.452-0.01,0.904-0.021,1.356    c-0.01,0.37-0.02,0.73-0.041,1.101c-0.01,0.329-0.031,0.658-0.062,0.987c-0.01,0.236-0.031,0.473-0.051,0.709    c-0.011,0.145-0.021,0.277-0.042,0.422c-0.02,0.257-0.041,0.524-0.082,0.781c-0.052,0.493-0.103,0.986-0.175,1.47    c-0.01,0.124-0.031,0.247-0.051,0.37c-0.031,0.247-0.072,0.494-0.113,0.74c-0.051,0.37-0.123,0.74-0.185,1.101    c-0.082,0.432-0.165,0.853-0.257,1.274c-0.011,0.093-0.031,0.175-0.052,0.258c-0.01,0.071-0.031,0.144-0.041,0.216    c-0.01,0.021-0.01,0.041-0.021,0.062c0,0.051-0.01,0.093-0.02,0.134c-0.051,0.216-0.093,0.432-0.154,0.647    c-0.02,0.113-0.041,0.227-0.082,0.34c-0.042,0.205-0.093,0.4-0.154,0.596c-0.01,0.093-0.031,0.186-0.062,0.277    c-0.021,0.093-0.051,0.186-0.072,0.268c-0.216,0.843-0.463,1.666-0.72,2.488c-0.124,0.391-0.247,0.771-0.38,1.162    c-0.01,0.041-0.031,0.082-0.041,0.123c-0.123,0.35-0.247,0.699-0.37,1.049c-0.041,0.103-0.082,0.205-0.123,0.318    c-0.124,0.329-0.247,0.658-0.38,0.987c-0.154,0.4-0.319,0.791-0.483,1.183c-0.144,0.35-0.298,0.698-0.452,1.048    c-0.02,0.063-0.051,0.113-0.072,0.175c-0.175,0.37-0.339,0.74-0.514,1.101c-0.175,0.38-0.36,0.761-0.555,1.142    c-0.37,0.75-0.771,1.501-1.172,2.23l-0.555,0.987c-1.584,2.725-3.341,5.284-5.254,7.649c-0.257,0.339-0.524,0.668-0.802,0.986    c-0.38,0.463-0.771,0.915-1.162,1.357c-0.35,0.391-0.699,0.781-1.059,1.162c-0.987,1.059-1.995,2.066-3.023,3.013    c-0.206,0.205-0.421,0.391-0.637,0.586c-0.35,0.318-0.699,0.627-1.059,0.925c-0.277,0.247-0.565,0.483-0.854,0.72    c-0.74,0.606-1.48,1.192-2.231,1.737c-0.308,0.237-0.627,0.463-0.946,0.679c-0.514,0.37-1.039,0.72-1.563,1.06    c-0.288,0.195-0.586,0.38-0.884,0.555c-1.049,0.647-2.108,1.244-3.157,1.758c-0.257,0.134-0.514,0.258-0.771,0.381    c-0.257,0.123-0.524,0.247-0.802,0.37c-0.339,0.154-0.679,0.298-1.018,0.432c-0.134,0.061-0.267,0.113-0.401,0.154    c-0.401,0.165-0.812,0.318-1.213,0.452c-0.503,0.186-1.018,0.34-1.521,0.483c-0.35,0.103-0.709,0.195-1.059,0.277    c-0.021,0.011-0.041,0.021-0.072,0.021c-0.35,0.083-0.699,0.165-1.049,0.227c-0.092,0.021-0.185,0.041-0.277,0.052    c-0.288,0.051-0.576,0.103-0.864,0.134c-0.411,0.062-0.823,0.113-1.234,0.133c-0.144,0.021-0.277,0.031-0.421,0.031    c-0.329,0.02-0.658,0.031-0.977,0.031h-0.031c-0.318,0-0.637-0.011-0.956-0.031c-0.123,0-0.247-0.01-0.37-0.031    c-0.288-0.01-0.586-0.041-0.895-0.082c-0.061,0-0.133-0.01-0.195-0.021c-0.38-0.051-0.761-0.113-1.151-0.185    c-0.329-0.052-0.658-0.124-0.998-0.206c-1.758-0.401-3.567-1.008-5.397-1.819c-1.563-0.689-3.146-1.522-4.719-2.488    c-0.791-0.473-1.573-0.987-2.365-1.542c-0.391-0.278-0.781-0.556-1.172-0.844c-1.224-0.895-2.437-1.871-3.629-2.92    c-0.329-0.298-0.658-0.596-0.987-0.904c-0.329-0.298-0.658-0.607-0.977-0.905c-0.802-0.771-1.583-1.572-2.344-2.405    c-0.298-0.319-0.596-0.647-0.895-0.987c-0.822-0.925-1.624-1.881-2.385-2.879c-0.298-0.359-0.576-0.729-0.853-1.1    c-1.039-1.378-2.025-2.817-2.951-4.309c-0.247-0.4-0.494-0.811-0.73-1.213c-0.288-0.483-0.565-0.977-0.843-1.47    c-1.028-1.851-1.974-3.773-2.796-5.758c-0.124-0.288-0.247-0.576-0.35-0.863c-0.164-0.37-0.308-0.751-0.442-1.121    c-0.206-0.545-0.401-1.09-0.586-1.635c-0.185-0.545-0.36-1.101-0.535-1.655c-0.164-0.535-0.318-1.069-0.462-1.614    c-0.165-0.576-0.319-1.162-0.453-1.758c-0.01-0.062-0.031-0.124-0.041-0.186c-0.195-0.822-0.37-1.655-0.524-2.498    c-0.206-1.11-0.37-2.241-0.493-3.383c-0.052-0.359-0.083-0.72-0.113-1.079c-0.041-0.381-0.072-0.751-0.093-1.131    c-0.051-0.689-0.082-1.389-0.103-2.088c-0.01-0.452-0.021-0.904-0.021-1.356l6.683,13.14l11.484,5.007L84,103.42h0.01    l10.065,0.915h0.062l9.417,0.853c0,0,0-0.01,0.01,0l21.005,1.893L135.973,84.05z"/>
		<g style="clip-path:url(#SVGID_2_);">
			<path style="fill:#543E36;" d="M94.159,90.651l-0.01,10.127v0.01l-0.01,3.548v2.786l-0.01,9.253v0.011l-0.01-0.011h-0.01     l-0.031-0.021L53.64,95.771c-0.01-0.062-0.031-0.124-0.041-0.186c-0.195-0.822-0.37-1.655-0.524-2.498     c-0.206-1.11-0.37-2.241-0.493-3.383c-0.052-0.359-0.083-0.72-0.113-1.079c-0.041-0.381-0.072-0.751-0.093-1.131     c-0.051-0.689-0.082-1.389-0.103-2.088c-0.01-0.452-0.021-0.904-0.021-1.356V71.764c0,0.175,0.01,0.35,0.01,0.524     c0.082,2.971,0.555,6.24,1.47,9.582c0.71,2.57,1.593,4.945,2.622,7.063v0.01c2.694,5.604,6.303,9.407,9.623,10.024     c0.206,0.031,0.421,0.052,0.627,0.072c1.285,0.144,2.632,0.226,4.02,0.226c5.244,0,9.901-4.215,12.831-5.922     c0.021-0.01,0.041-0.021,0.062-0.03c0.154-0.093,0.308-0.186,0.442-0.278c0.041-0.03,0.082-0.051,0.124-0.071     c2.467-1.409,6.025-2.304,9.993-2.313H94.159z"/>
			<path style="fill:#543E36;" d="M135.981,71.759l-0.01,12.286c0,3.084-0.288,6.107-0.822,9.037     c-0.216,1.172-0.463,2.334-0.751,3.485l-9.49,13.705l-30.783,6.097h-0.01l-0.01,0.011v-0.011l-0.031-25.728h0.083     c3.968,0.011,7.536,0.905,10.003,2.313c0.042,0.021,0.072,0.041,0.113,0.072c0.144,0.092,0.298,0.185,0.453,0.277     c0.01,0.01,0.031,0.021,0.051,0.031c2.94,1.706,7.587,5.925,12.831,5.925c1.388,0,2.735-0.082,4.02-0.226     c0.216-0.021,0.421-0.041,0.637-0.072c3.311-0.617,6.93-4.421,9.613-10.024v-0.01c1.028-2.118,1.912-4.493,2.622-7.063     c0.925-3.394,1.409-6.704,1.47-9.716C135.981,72.016,135.981,71.892,135.981,71.759z"/>
		</g>
		<ellipse style="clip-path:url(#SVGID_2_);fill:#ECC19C;" cx="94.108" cy="103.95" rx="10.255" ry="3.171"/>
		<path style="clip-path:url(#SVGID_2_);fill:black;" d="M94.116,10.929000000000002h-0.040000000000020464c-23.10199999999999,0.021000000000000796,-41.823999999999984,18.753,-41.823999999999984,41.85499999999999v18.456000000000003c0,0,1.737000000000009,-11.012,6.415999999999997,-16.358000000000004c5.0789999999999935,-5.8089999999999975,3.793999999999997,-14.641000000000005,15.185999999999993,-14.641000000000005c7.350999999999999,0,7.7620000000000005,2.7139999999999986,20.21299999999998,2.7139999999999986h0.009999999999990905h0.040000000000020464h0.009999999999990905c12.451000000000022,0,12.862000000000023,-2.7139999999999986,20.213000000000022,-2.7139999999999986c11.391999999999996,0,10.105999999999995,8.831000000000003,15.186000000000021,14.641000000000005c4.677999999999997,5.346000000000004,6.414999999999964,16.358000000000004,6.414999999999964,16.358000000000004v-18.456000000000003c-0.0009999999999763531,-23.10199999999999,-18.723,-41.834999999999994,-41.824999999999974,-41.85499999999999Z"/>
		<g style="clip-path:url(#SVGID_2_);">
			<path style="fill:#C34628;" d="M121.74,153.721l-1.131,1.152c-7.053,7.186-16.471,11.145-26.516,11.145     c-10.147-0.021-19.545-3.989-26.567-11.165l-1.08-1.11c0.535-0.319,1.08-0.628,1.625-0.926c0.021-0.021,0.041-0.01,0.041-0.01     v-0.011c0.442-0.247,0.874-0.493,1.306-0.751c1.285-0.781,2.519-1.645,3.67-2.591c0.01,0.011,0.01,0.011,0.021,0.021     c5.326,5.449,12.739,8.832,20.964,8.853h0.083c8.225,0,15.668-3.393,21.015-8.842l0.01-0.011c0.73,0.607,1.491,1.173,2.272,1.697     c0.082,0.061,0.154,0.112,0.236,0.164c0.37,0.247,0.751,0.483,1.131,0.72c0.421,0.257,0.854,0.504,1.285,0.74     c0.072,0.021,0.124,0.062,0.185,0.093C120.774,153.157,121.267,153.434,121.74,153.721z"/>
		</g>
	</g>
</g>
<g>
</g>
<g>
</g>
<g>
</g>
<g>
</g>
<g>
</g>
<g>
</g>
<g>
</g>
<g>
</g>
<g>
</g>
<g>
</g>
<g>
</g>
<g>
</g>
<g>
</g>
<g>
</g>
<g>
</g>
<g id="g_e1_svg" transform="matrix(1.19771 0 0 1.19771 -10.9586 0.669972)"><svg xmlns="http://www.w3.org/2000/svg" xmlns:xlink="http://www.w3.org/1999/xlink" height="94.5812" width="94.5812" viewBox="0 0 595 730" preserveAspectRatio="xMidYMid meet" zoomAndPan="disable" id="e1_svg" x="40.07257094962478" y="-3.4926431125166193" style="stroke:black;stroke-width:1px;fill:khaki;">

<g transform="translate(0.000000,730.000000) scale(0.100000,-0.100000)" fill="#000000" stroke="none">
<path d="M958,7004c-169,-288,-279,-535,-409,-923c-213,-631,-217,-662,-250,-1786c-13,-436,-7,-1472,10,-1830c45,-929,49,-965,172,-1511c51,-229,187,-775,194,-783c9,-8,13,30,60,504c25,264,57,543,69,620c40,242,78,425,87,419c5,-2,441,-196,970,-429l962,-425l132,0l132,0l962,425c529,233,965,427,970,429c9,6,47,-177,87,-419c12,-77,44,-356,69,-620c47,-474,51,-512,60,-504c7,8,143,554,194,783c123,546,127,582,172,1511c17,358,23,1394,10,1830c-33,1124,-37,1155,-250,1786c-130,388,-240,635,-409,923c-61,104,-77,125,-83,110c-8,-19,-51,-521,-69,-809c-12,-191,-31,-348,-71,-585c-32,-192,-56,-309,-68,-328c-5,-8,-42,6,-132,52c-263,136,-526,237,-718,276c-143,29,-407,57,-651,70c-314,16,-787,-15,-1061,-70c-192,-39,-455,-140,-718,-276c-90,-46,-127,-60,-132,-52c-12,19,-36,136,-68,328c-40,237,-59,394,-71,585c-18,288,-61,790,-69,809c-6,15,-22,-6,-83,-110ZM1410,3187c162,-82,366,-187,452,-233c86,-45,282,-147,435,-225c173,-89,294,-158,319,-181c127,-117,50,-364,-145,-462c-114,-58,-230,-68,-461,-41c-404,47,-628,156,-801,388c-113,151,-202,353,-228,517c-12,71,-15,328,-5,355c10,25,64,45,104,39c19,-4,168,-74,330,-157ZM4889,3339c17,-6,36,-19,41,-29c13,-25,13,-278,-1,-360c-15,-96,-74,-263,-125,-357c-189,-348,-428,-493,-904,-548c-231,-27,-347,-17,-461,41c-148,74,-237,244,-199,379c20,73,69,107,365,259c149,76,349,180,445,231c96,51,301,156,454,235c237,121,302,151,347,159c3,1,20,-4,38,-10Z"/>
</g>
</svg></g></svg>